<svg xmlns="http://www.w3.org/2000/svg" viewBox="0 0 400 300" fill="none">
  <!-- Decorative -->
  <circle cx="80" cy="70" r="35" fill="#7C6BC4" opacity="0.08"/>
  <circle cx="330" cy="240" r="40" fill="#A99DDB" opacity="0.1"/>
  
  <!-- Search box -->
  <rect x="100" y="80" width="200" height="50" rx="25" fill="#FFFFFF" stroke="#E5E4F0" stroke-width="2"/>
  <circle cx="135" cy="105" r="12" fill="none" stroke="#A99DDB" stroke-width="2.5"/>
  <line x1="144" y1="114" x2="155" y2="125" stroke="#A99DDB" stroke-width="2.5" stroke-linecap="round"/>
  <rect x="160" y="100" width="80" height="6" rx="3" fill="#E5E4F0"/>
  
  <!-- Empty box -->
  <rect x="120" y="155" width="160" height="80" rx="10" fill="#FFFFFF" stroke="#E5E4F0" stroke-width="2"/>
  
  <!-- X mark -->
  <circle cx="200" cy="195" r="25" fill="#E5E4F0"/>
  <line x1="190" y1="185" x2="210" y2="205" stroke="#A99DDB" stroke-width="2.5" stroke-linecap="round"/>
  <line x1="210" y1="185" x2="190" y2="205" stroke="#A99DDB" stroke-width="2.5" stroke-linecap="round"/>
  
  <!-- Disappointed face -->
  <circle cx="300" cy="120" r="18" fill="#FFFFFF" stroke="#7C6BC4" stroke-width="1.5"/>
  <circle cx="295" cy="115" r="2.5" fill="#2D2B55"/>
  <circle cx="305" cy="115" r="2.5" fill="#2D2B55"/>
  <path d="M295 127 Q300 124 305 127" stroke="#2D2B55" stroke-width="2" stroke-linecap="round"/>
  
  <!-- Decorative -->
  <circle cx="80" cy="200" r="5" fill="#A99DDB" opacity="0.2"/>
  <circle cx="330" cy="170" r="6" fill="#7C6BC4" opacity="0.15"/>
</svg>
