<svg xmlns="http://www.w3.org/2000/svg" viewBox="0 0 400 300" fill="none">
  <!-- Decorative -->
  <circle cx="330" cy="70" r="40" fill="#7C6BC4" opacity="0.08"/>
  <circle cx="70" cy="230" r="35" fill="#A99DDB" opacity="0.1"/>
  
  <!-- Shield -->
  <path d="M200 60 L120 100 L120 180 Q120 240 200 270 Q280 240 280 180 L280 100 Z" fill="#FFFFFF" stroke="#7C6BC4" stroke-width="3"/>
  <path d="M200 80 L140 110 L140 175 Q140 225 200 250 Q260 225 260 175 L260 110 Z" fill="#7C6BC4" opacity="0.1"/>
  
  <!-- Lock icon in shield -->
  <rect x="175" y="140" width="50" height="40" rx="8" fill="#7C6BC4"/>
  <path d="M185 140 L185 125 Q185 115 200 115 Q215 115 215 125 L215 140" stroke="#7C6BC4" stroke-width="5" stroke-linecap="round" fill="none"/>
  <circle cx="200" cy="158" r="6" fill="#F0EEF7"/>
  <rect x="198" y="158" width="4" height="12" rx="2" fill="#F0EEF7"/>
  
  <!-- Check marks floating -->
  <circle cx="100" cy="100" r="15" fill="#34D399" opacity="0.2"/>
  <path d="M94 100 L98 104 L106 96" stroke="#34D399" stroke-width="2" stroke-linecap="round" stroke-linejoin="round"/>
  
  <circle cx="310" cy="180" r="12" fill="#34D399" opacity="0.15"/>
  <path d="M305 180 L308 183 L315 176" stroke="#34D399" stroke-width="2" stroke-linecap="round" stroke-linejoin="round"/>
  
  <!-- Key -->
  <circle cx="320" cy="100" r="14" fill="#FFFFFF" stroke="#7C6BC4" stroke-width="2"/>
  <circle cx="320" cy="100" r="5" fill="#7C6BC4" opacity="0.3"/>
  <rect x="330" y="98" width="20" height="4" rx="2" fill="#7C6BC4"/>
  <rect x="345" y="95" width="4" height="6" rx="1" fill="#7C6BC4"/>
  
  <!-- Decorative dots -->
  <circle cx="80" cy="200" r="5" fill="#7C6BC4" opacity="0.2"/>
  <circle cx="340" cy="240" r="6" fill="#A99DDB" opacity="0.2"/>
</svg>
