<svg xmlns="http://www.w3.org/2000/svg" viewBox="0 0 400 300" fill="none">
  <!-- Decorative elements -->
  <circle cx="80" cy="80" r="35" fill="#7C6BC4" opacity="0.08"/>
  <circle cx="330" cy="230" r="45" fill="#A99DDB" opacity="0.1"/>
  
  <!-- School building main -->
  <rect x="120" y="100" width="160" height="120" rx="8" fill="#FFFFFF" stroke="#7C6BC4" stroke-width="2"/>
  
  <!-- Roof -->
  <polygon points="110,100 200,50 290,100" fill="#7C6BC4" opacity="0.8"/>
  <polygon points="120,100 200,60 280,100" fill="#7C6BC4"/>
  
  <!-- Windows -->
  <rect x="140" y="120" width="30" height="30" rx="4" fill="#A99DDB" opacity="0.3"/>
  <rect x="185" y="120" width="30" height="30" rx="4" fill="#A99DDB" opacity="0.3"/>
  <rect x="230" y="120" width="30" height="30" rx="4" fill="#A99DDB" opacity="0.3"/>
  
  <!-- Door -->
  <rect x="185" y="165" width="30" height="55" rx="4" fill="#5E4FA2"/>
  <circle cx="210" cy="195" r="3" fill="#F0EEF7"/>
  
  <!-- Construction/setup elements -->
  <circle cx="320" cy="80" r="20" fill="#7C6BC4" opacity="0.15"/>
  <path d="M315 75 L320 65 L325 75 Z" fill="#7C6BC4"/>
  
  <circle cx="80" cy="200" r="15" fill="#A99DDB" opacity="0.2"/>
  <circle cx="75" cy="195" r="3" fill="#7C6BC4"/>
  <circle cx="85" cy="195" r="3" fill="#7C6BC4"/>
  
  <!-- Gear/settings icon -->
  <circle cx="340" cy="160" r="18" fill="#FFFFFF" stroke="#7C6BC4" stroke-width="2"/>
  <circle cx="340" cy="160" r="6" fill="#7C6BC4" opacity="0.3"/>
  <path d="M340 148 L342 152 L346 150 L344 156 L348 160 L344 162 L346 168 L340 166 L334 168 L336 162 L332 160 L336 156 L334 150 L338 152 Z" fill="#7C6BC4" opacity="0.5"/>
</svg>
